<svg width="393" height="397" viewBox="0 0 393 397" fill="none" xmlns="http://www.w3.org/2000/svg">
<g clip-path="url(#clip0_813_6989)">
<path d="M22.7022 238.986C22.7012 238.927 22.6918 238.872 22.69 238.813C22.6909 238.775 22.6909 238.737 22.6909 238.7C22.69 238.714 22.6872 238.726 22.6853 238.739C22.5633 234.434 20.7859 231.017 17.9149 227.806C15.0926 224.649 11.0303 222.657 9.69846 218.606C10.4751 216.295 12.4588 214.757 14.3413 213.027C16.6702 210.888 17.9496 207.811 18.6896 204.795C19.4381 201.747 19.2749 197.788 18.6549 194.735C16.5192 184.228 4.26587 179.148 2.65072 168.163C2.85144 169.524 2.44906 170.98 2.65072 172.35C3.65151 179.16 8.58042 184.032 12.864 189.043C15.0316 191.58 16.9957 194.26 18.2019 197.393C19.4512 200.636 18.5583 202.285 16.3551 206.427C14.5861 209.752 10.7621 211.061 9.52494 214.807C8.91527 216.651 9.29702 219.079 9.32891 220.995C9.39456 224.852 12.5958 227.232 15.2746 229.495C18.6924 232.382 21.6329 235.971 22.4499 240.352C21.2305 246.524 16.2003 251.108 11.0238 254.415C10.3682 254.834 11.6344 258.212 11.0238 258.602C15.7548 255.579 20.1172 251.632 22.0972 246.258C22.931 243.995 22.7331 241.359 22.7022 238.986Z" fill="url(#paint0_linear_813_6989)"/>
<path d="M67.8878 138.279C64.242 137.855 60.2247 137.164 57.8395 134.093C58.0553 134.373 57.818 135.842 57.818 136.187C57.818 136.562 57.5947 137.965 57.8395 138.28C60.2247 141.352 64.242 142.043 67.8878 142.467C67.7583 142.451 68.0791 138.302 67.8878 138.279Z" fill="url(#paint1_linear_813_6989)"/>
<path d="M132.494 47.2047C130.752 44.7285 128.046 43.104 124.957 43.436C124.778 43.4557 125.074 47.6099 124.957 47.623C128.046 47.291 130.753 48.9146 132.494 51.3908C132.274 51.0775 132.515 49.6706 132.515 49.2973C132.515 48.8939 132.741 47.5546 132.494 47.2047Z" fill="url(#paint2_linear_813_6989)"/>
<path d="M53.0916 221.349C53.0588 217.892 50.9081 215.335 47.5896 214.413C47.9207 214.505 47.2004 218.492 47.5896 218.6C49.0425 219.004 50.2834 219.706 51.3461 220.779C51.665 221.101 51.9182 221.474 52.1527 221.859C51.5468 221.986 50.7955 221.944 50.3744 221.883C49.383 221.739 48.6082 221.02 48.0079 220.276C48.2227 220.542 47.9873 222.035 47.9873 222.369C47.9873 222.734 47.765 224.16 48.0079 224.463C49.1194 225.84 50.4794 226.359 52.2174 225.987C53.146 225.788 53.0691 225.455 53.0879 224.638C53.1132 223.542 53.1038 222.445 53.0916 221.349Z" fill="url(#paint3_linear_813_6989)"/>
<path d="M162.777 176.212C160.655 174.879 157.72 174.939 156.478 172.428C156.693 172.861 156.458 174.047 156.458 174.521C156.458 175.026 156.246 176.145 156.478 176.614C157.359 178.394 159.217 178.976 160.964 179.601C161.757 179.885 162.528 180.201 163.215 180.691C164.938 181.917 164.148 185.18 164.427 179.619C164.365 180.88 164.487 182.672 164.438 183.657C164.561 181.21 165.189 177.726 162.777 176.212Z" fill="url(#paint4_linear_813_6989)"/>
<path d="M25.046 136.426C24.5536 134.438 23.3146 132.668 22.2603 130.948C21.7238 130.074 21.2577 129.177 20.8393 128.24C20.5758 127.651 20.0252 124.362 19.9849 126.968C19.9989 126.013 19.998 125.058 19.9924 124.103C19.9914 123.992 19.9755 122.579 19.9642 123.353C19.9202 126.154 19.7448 128.973 20.5598 131.685C21.1442 133.625 22.4067 135.349 23.4403 137.067C23.974 137.956 24.4092 138.88 24.7937 139.841C25.1126 140.637 25.2439 143.748 25.4109 141.146C25.3312 142.403 25.4859 144.2 25.4231 145.183C25.6079 142.308 25.742 139.237 25.046 136.426Z" fill="url(#paint5_linear_813_6989)"/>
<path d="M27.4913 36.7005C27.4913 36.5908 27.4913 36.4801 27.4913 36.3703C27.4895 36.4191 27.4791 36.4594 27.4763 36.5073C27.346 35.4512 27.0055 34.4541 26.1716 33.5246C23.7733 30.8515 19.3931 30.7764 18.6212 26.7039C18.8753 28.0442 18.3651 29.5383 18.6212 30.8909C19.4278 35.1444 24.9739 35.4483 26.8751 38.6252C25.3444 41.2702 21.329 41.7945 19.0245 43.8805C17.369 45.3775 17.9355 49.9678 18.6212 51.8258C18.2516 50.8279 18.7862 49.4857 18.7412 48.3507C20.7287 45.0951 27.0149 45.4966 27.482 40.412C27.4848 40.4363 27.4941 40.457 27.496 40.4814C27.496 40.3735 27.496 40.2666 27.496 40.1578C27.5016 40.0612 27.5101 39.9683 27.511 39.8679C27.5232 38.764 27.5917 37.706 27.4913 36.7005Z" fill="url(#paint6_linear_813_6989)"/>
<path d="M234.483 23.8808C234.527 22.8003 234.431 21.6925 234.422 20.7246C234.394 17.8479 232.143 15.8482 230.096 14.1186C228.131 12.4566 224.009 10.5197 223.365 7.80811C223.677 9.12123 223.05 10.667 223.365 11.9942C223.912 14.2996 227.14 15.9898 228.869 17.3255C230.634 18.6864 232.678 20.2565 233.74 22.2938C233.629 22.4692 233.508 22.6436 233.374 22.8162C233.007 22.532 232.605 22.2713 232.157 22.0443C230.47 21.1879 226.096 19.5981 225.942 23.015C225.861 24.8037 225.545 27.052 226.224 28.7497C227.605 32.2041 232.031 28.7947 233.364 27.2987C233.429 27.2264 233.471 27.142 233.529 27.066C236.745 29.3424 236.179 31.9649 235.506 35.8612C235.272 37.2212 235.739 38.6985 235.506 40.0482C236.337 35.2356 237.865 27.9346 234.483 23.8808ZM226.862 25.5072C227.705 24.9453 228.994 25.0701 230.198 25.4312C228.946 26.0371 227.691 26.19 226.862 25.5072Z" fill="url(#paint7_linear_813_6989)"/>
<path d="M17.0313 96.1243C15.6863 100.208 12.1681 101.079 8.23899 100.73C8.32997 100.738 8.08329 104.903 8.23899 104.917C12.1681 105.266 15.6863 104.394 17.0313 100.311C17.4487 99.0432 16.6196 97.3736 17.0313 96.1243Z" fill="url(#paint8_linear_813_6989)"/>
<path d="M186.97 178.901C184.551 177.691 182.028 176.368 181.526 173.458C181.759 174.808 181.291 176.286 181.526 177.645C182.028 180.555 184.551 181.878 186.97 183.088C186.851 183.029 186.989 181.154 186.989 180.995C186.989 180.817 187.133 178.983 186.97 178.901Z" fill="url(#paint9_linear_813_6989)"/>
<path d="M35.5022 194.276C34.779 192.176 33.4556 190.691 31.9192 189.141C31.2392 188.455 30.6267 187.74 30.1062 186.925C29.8323 186.496 29.6569 186.018 29.4843 185.543C29.3539 185.188 29.3221 184.773 29.3155 184.551C29.3099 184.753 29.2874 185.165 29.2217 185.901C29.3446 184.514 29.0988 183.095 29.2217 181.714C28.9816 184.406 28.7293 187.647 29.6616 190.221C30.8359 193.457 34.3382 195.089 35.5022 198.462C35.0754 197.226 35.9355 195.532 35.5022 194.276Z" fill="url(#paint10_linear_813_6989)"/>
<path d="M29.3156 184.552C29.3099 184.368 29.3231 184.323 29.3156 184.552V184.552Z" fill="url(#paint11_linear_813_6989)"/>
<path d="M141.382 28.1249C138.572 28.4222 137.243 26.1289 135.52 24.3562C135.722 24.5635 135.5 26.1655 135.5 26.4497C135.5 26.762 135.285 28.3012 135.52 28.5432C137.243 30.315 138.572 32.6092 141.382 32.3119C141.56 32.2931 141.268 28.138 141.382 28.1249Z" fill="url(#paint12_linear_813_6989)"/>
<path d="M63.2092 39.2649C63.1117 43.0983 62.1419 47.9512 60.2838 51.3325C59.6873 52.4168 60.8653 54.4625 60.2838 55.5186C62.1728 52.0829 63.122 47.1999 63.2205 43.3028C63.2515 42.0403 63.183 40.2526 63.2092 39.2649Z" fill="url(#paint13_linear_813_6989)"/>
<path d="M217.153 206.273C216.878 208.547 215.393 209.652 213.593 210.827C211.511 212.186 210.281 213.787 210.035 216.322C209.9 217.707 210.169 219.13 210.035 220.509C210.282 217.959 211.517 216.392 213.593 215.014C215.388 213.822 216.876 212.746 217.153 210.461C217.32 209.082 216.986 207.644 217.153 206.273Z" fill="url(#paint14_linear_813_6989)"/>
<path d="M193.374 40.4091C193.312 38.0549 192.041 35.8976 190.789 33.9861C191.009 34.3237 190.768 35.6856 190.768 36.0796C190.768 36.5045 190.543 37.7988 190.789 38.1731C191.393 39.0951 191.95 40.0293 192.429 41.0216C192.659 41.4944 192.829 41.9896 192.994 42.4876C193.097 42.8 193.148 43.1226 193.17 43.3928C193.19 43.0626 193.229 42.5918 193.301 41.9427C193.151 43.3243 193.45 44.7537 193.301 46.1288C193.506 44.2416 193.423 42.3057 193.374 40.4091Z" fill="url(#paint15_linear_813_6989)"/>
<path d="M193.17 43.3928C193.109 44.4114 193.228 44.0672 193.17 43.3928V43.3928Z" fill="url(#paint16_linear_813_6989)"/>
<path d="M104.22 167.121C104.983 164.081 104.1 161.025 101.084 158.538C98.7969 156.653 96.0355 155.764 92.5858 154.866C90.4979 154.323 87.9748 153.727 86.7761 152.572C88.1568 151.145 91.2848 150.243 93.459 149.444C96.9022 148.178 100.957 146.667 101.074 143.961C101.148 142.26 101.3 140.532 100.646 138.866C99.3681 135.617 93.7338 133.999 88.7974 133.404C89.0356 133.432 88.4991 135.888 88.7974 135.924C95.3536 136.714 105.257 140.757 98.2772 144.866C94.849 146.884 86.6439 148.08 86.1046 151.366C86.1017 151.346 86.0933 151.327 86.0914 151.306V151.517C86.0858 151.57 86.0764 151.622 86.0764 151.676C86.0642 152.361 85.9845 153.068 86.0914 153.754V153.827C86.0924 153.815 86.097 153.805 86.0999 153.795C86.1646 154.194 86.294 154.586 86.5388 154.964C87.8135 156.927 94.1737 157.702 96.9463 158.609C100.27 159.697 104.835 163.253 103.89 165.632C103.106 167.603 100.088 168.614 97.1639 169.239C91.781 170.39 83.9867 170.66 82.6388 174.805C81.9025 177.072 82.6191 179.231 85.6149 180.709C90.0195 182.882 95.7513 183.859 99.6279 186.466C100.467 187.032 101.044 187.699 101.463 188.407C101.495 188.464 101.52 188.519 101.538 188.572C101.33 189.193 100.751 189.781 100.26 190.33C98.6552 192.122 98.3054 193.37 98.3241 195.347C98.3457 197.545 99.626 199.221 97.7754 201.29C95.7823 203.52 92.023 204.934 90.0552 207.247C89.4821 207.919 90.6142 209.109 90.0552 209.767C91.9039 207.595 94.8941 206.16 97.298 204.253C99.2499 202.703 99.2865 200.78 99.2865 198.93C99.2865 196.961 98.1328 195.167 99.7461 193.391C101.332 191.645 101.848 190.278 101.839 188.348C101.823 184.984 98.9404 183.138 94.3303 181.4C91.2126 180.224 84.6826 178.817 83.0056 176.413C85.9882 171.003 102.566 173.729 104.22 167.121Z" fill="url(#paint17_radial_813_6989)"/>
<path d="M209.492 50.3524C207.375 49.9031 205.39 49.1134 203.631 47.8406C203.794 47.9588 203.611 49.7259 203.611 49.9341C203.611 50.1676 203.428 51.8813 203.631 52.0276C205.39 53.2994 207.375 54.0901 209.492 54.5403C209.239 54.4859 209.808 50.419 209.492 50.3524Z" fill="url(#paint18_radial_813_6989)"/>
<path d="M205.882 25.6131C205.882 25.4621 205.754 23.5683 205.863 23.5196C202.347 25.1225 200.889 20.4093 199.582 18.0767C199.802 18.4697 199.561 19.7303 199.561 20.1702C199.561 20.6401 199.342 21.835 199.582 22.2637C200.889 24.5954 202.347 29.3095 205.863 27.7066C206.015 27.6362 205.882 25.781 205.882 25.6131Z" fill="url(#paint19_radial_813_6989)"/>
<path d="M176.403 54.7024C174.63 53.7766 173.141 52.2872 172.216 50.5154C172.257 50.596 172.201 51.0772 172.201 51.1288C172.196 51.6222 172.194 52.1155 172.194 52.6098C172.194 53.1032 172.196 53.5965 172.201 54.0899C172.202 54.1781 172.159 54.5955 172.216 54.7033C173.141 56.476 174.63 57.9646 176.403 58.8903C176.279 58.8256 176.422 56.96 176.422 56.7968C176.423 56.613 176.571 54.7905 176.403 54.7024Z" fill="url(#paint20_radial_813_6989)"/>
<path d="M110.948 62.6892C109.658 61.8788 108.241 61.8525 106.761 61.8525C106.73 61.8525 106.727 66.0386 106.761 66.0386C108.241 66.0405 109.658 66.0658 110.948 66.8762C110.802 66.7843 110.968 64.9693 110.968 64.7836C110.969 64.5745 111.136 62.8074 110.948 62.6892Z" fill="url(#paint21_radial_813_6989)"/>
<path d="M202.69 187.262C202.693 186.769 202.695 186.275 202.695 185.782C202.695 185.288 202.693 184.795 202.69 184.302C202.69 184.28 202.636 183.744 202.674 183.688C201.773 185.004 200.643 186.141 199.743 187.457C199.687 187.538 199.728 188.016 199.728 188.07C199.723 188.563 199.722 189.057 199.722 189.55C199.722 190.044 199.723 190.537 199.728 191.03C199.728 191.052 199.78 191.589 199.743 191.644C200.643 190.329 201.773 189.191 202.674 187.876C202.729 187.796 202.689 187.316 202.69 187.262Z" fill="url(#paint22_radial_813_6989)"/>
<path d="M243.588 14.2919C237.578 13.2799 239.933 21.1146 237.726 24.3402C237.066 25.3053 238.366 27.592 237.726 28.5272C239.933 25.3006 237.578 17.4669 243.588 18.478C243.39 18.4461 243.847 14.336 243.588 14.2919Z" fill="url(#paint23_radial_813_6989)"/>
<path d="M84.3421 49.5168C84.3665 48.9662 84.3627 48.3997 84.3627 47.8153C84.3627 47.5743 84.3487 47.3501 84.3384 47.1213C84.3374 46.6795 84.3374 46.2386 84.3374 45.7969C84.3318 45.9732 84.299 46.1411 84.2764 46.3118C84.0298 44.0767 83.2006 42.3752 81.5695 40.3502C80.534 39.0643 79.1553 38.2014 77.9219 37.1396C76.9173 36.2739 76.6416 34.6616 76.4896 33.265C76.5093 32.811 76.5299 32.3561 76.5506 31.9012C76.6059 30.6415 76.4952 28.8491 76.5393 27.8643C76.3761 31.5438 76.0206 35.3125 76.7747 38.947C77.1949 40.9693 78.4799 41.7309 79.976 42.9511C81.5442 44.2296 83.0008 45.9648 83.7915 47.8969C82.1004 51.3824 76.8451 53.6484 74.4505 56.2606C73.7414 57.0344 75.1315 59.7057 74.4505 60.4476C76.9042 57.7716 80.1129 56.0815 82.7204 53.5912C83.9003 52.4638 84.2286 51.1948 84.3224 49.8094C84.328 49.8422 84.3374 49.8751 84.3421 49.907C84.343 49.7775 84.3421 49.6472 84.3421 49.5168Z" fill="url(#paint24_radial_813_6989)"/>
<path d="M243.109 161.859C243.108 161.848 243.104 161.837 243.104 161.827V161.784C243.103 161.79 243.101 161.794 243.099 161.799C243.039 160.991 242.328 160.027 241.89 159.084C241.939 158.614 241.978 158.139 242.019 157.666C242.061 157.903 242.099 158.139 242.134 158.364C242.132 157.402 242.13 156.442 242.13 155.48C242.134 155.249 242.15 155.026 242.149 154.789C242.148 154.699 242.132 154.614 242.129 154.526C242.129 154.434 242.129 154.343 242.129 154.252C242.126 154.305 242.123 154.359 242.12 154.413C242.049 153.226 241.711 152.135 241.125 151.071C240.605 150.128 239.798 149.763 239.151 149.201C240.133 147.957 241.647 147.039 242.572 145.595C243.145 144.701 242.864 143.115 242.861 142.138C242.856 140.517 242.95 139.481 242.158 138.027C241.616 137.03 240.671 136.197 239.989 135.287C240.092 135.234 240.205 135.191 240.327 135.158C240.958 134.791 239.745 131.31 240.327 130.971C239.766 131.298 239.468 131.761 239.315 132.294C239.311 132.265 239.307 132.235 239.303 132.207C239.303 132.25 239.303 132.293 239.303 132.336C239.025 133.363 239.277 134.65 239.288 135.781C239.315 138.658 240.926 140.025 242.065 142.057C241.016 143.473 239.417 144.391 238.378 145.903C237.841 146.685 238.176 148.701 238.176 149.639C238.176 150.28 238.147 150.898 238.202 151.502C238.202 151.553 238.202 151.605 238.202 151.657C238.203 151.628 238.209 151.602 238.21 151.574C238.264 152.086 238.379 152.588 238.637 153.083C238.972 153.73 240.056 154.21 240.605 154.657C241.32 155.238 241.67 156.12 241.883 157.021C241.818 157.549 241.753 158.077 241.697 158.606C241.649 158.464 241.608 158.323 241.583 158.185C241.584 158.776 241.585 159.369 241.586 159.962C241.571 160.252 241.563 160.543 241.564 160.835C241.564 160.973 241.58 161.099 241.587 161.229C241.588 161.585 241.588 161.941 241.589 162.297C241.602 162.107 241.622 161.926 241.638 161.738C241.748 162.48 241.979 163.126 242.244 163.76C241.285 165.139 239.795 166.109 238.653 167.395C237.947 168.192 239.331 170.818 238.653 171.582C240.503 169.498 242.509 168.244 243.007 165.677C243.039 165.774 243.075 165.868 243.104 165.97V164.872C243.113 164.728 243.124 164.585 243.124 164.432C243.127 163.578 243.141 162.717 243.109 161.859Z" fill="url(#paint25_radial_813_6989)"/>
<path d="M224.426 237.252C224.932 237.485 223.869 241.181 224.426 241.439C227.299 242.766 229.241 244.96 230.777 247.685C232.415 250.59 232.717 252.745 231.278 255.631C228.356 261.496 219.474 261.866 213.882 262.134C211.069 262.268 208.219 262.423 205.405 262.326C202.175 262.213 198.327 261.863 195.955 264.467C195.394 265.083 194.864 266.26 194.539 267.556C194.528 267.509 194.513 267.467 194.504 267.417V267.698C194.047 269.63 194.056 271.792 195.13 272.781C196.398 273.948 199.424 273.543 200.986 273.59C203.765 273.672 206.502 274.969 208.891 276.299C213.912 279.095 217.361 284.1 218.43 289.695C219.163 293.532 216.54 297.63 213.577 300.704C207.779 298.6 201.375 298.516 198.506 302.575C197.472 304.038 197.704 307.818 198.291 309.421C200.28 314.855 209.59 308.443 211.732 306.71C212.341 306.216 212.894 305.677 213.423 305.118C218.235 306.635 223.568 309.574 224.847 314.294C224.497 313.002 225.2 311.414 224.847 310.107C223.985 306.922 220.35 303.777 215.977 301.702C219.158 296.192 219.615 289.116 217.831 283.02C216.267 277.676 212.002 273.622 207.149 271.192C204.714 269.973 202.253 269.428 199.562 269.365C198.492 269.34 196.772 269.42 195.634 268.866C198.368 265.447 205.063 266.64 208.968 266.481C215.358 266.218 222.25 266.513 227.973 263.202C237.123 257.905 232.395 240.935 224.426 237.252ZM198.706 306.418C200.667 303.428 206.227 303.605 209.54 304.162C207.392 305.484 200.782 308.636 198.706 306.418Z" fill="url(#paint26_radial_813_6989)"/>
<path d="M166.865 73.5723C165.993 69.6357 164.015 66.1362 161.258 63.2286C159.913 61.8104 156.015 60.1006 154.265 58.1168C155.486 56.2146 157.491 55.3724 159.789 54.4147C161.772 53.5884 162.287 52.3437 162.421 50.6779C162.428 50.722 162.439 50.7624 162.446 50.8064C162.446 50.6273 162.446 50.4472 162.446 50.2671C162.461 49.9482 162.466 49.6171 162.466 49.2701C162.468 48.5347 162.484 47.8632 162.442 47.2272C162.44 47.05 162.44 46.8727 162.44 46.6945C162.438 46.7742 162.422 46.8417 162.416 46.9187C162.3 45.8137 161.95 44.828 160.9 43.8638C158.67 41.8134 155.292 41.3501 153.897 38.7585C154.698 36.8742 156.202 35.3678 157.231 33.4732C157.954 32.1432 157.717 30.3686 157.717 28.9269C157.717 27.3962 157.759 26.1065 157.071 24.6884C156.294 23.092 154.582 21.9599 153.508 20.5164C153.752 20.2491 154.032 19.993 154.346 19.7163C155.056 19.0944 153.672 16.1202 154.346 15.5293C153.315 16.4335 152.829 17.4089 152.617 18.4763C152.603 18.3816 152.585 18.2878 152.579 18.1893C152.579 18.3563 152.579 18.5232 152.579 18.6902C152.403 19.7688 152.485 20.9403 152.568 22.2272C152.568 22.2403 152.572 22.2525 152.573 22.2647C152.573 22.2769 152.573 22.2891 152.573 22.3013C152.574 22.2966 152.576 22.2928 152.578 22.2881C152.807 25.2202 155.871 26.75 157.158 29.2618C156.185 31.3675 154.389 33.0361 153.549 35.2637C153.012 36.6913 153.317 38.7576 153.325 40.2555C153.326 40.4196 153.337 40.5772 153.349 40.7319C153.349 40.8933 153.349 41.0555 153.349 41.2178C153.352 41.1203 153.363 41.0274 153.368 40.9327C153.897 45.553 159.511 45.7472 161.67 48.8546C160.078 50.8205 156.42 51.0588 154.765 53.2123C153.944 54.2806 153.578 55.363 153.424 56.4895C153.414 56.4182 153.393 56.3488 153.392 56.2766C153.391 56.4341 153.39 56.5917 153.39 56.7493C153.261 57.9564 153.354 59.2161 153.385 60.5677C153.418 61.9661 154.888 62.7371 155.923 63.3881C158.192 64.8156 160.244 66.3464 162.097 68.3001C165.982 72.398 167.939 79.1334 167.739 84.6889C167.693 85.9504 167.786 87.7391 167.75 88.7267C167.932 83.6571 167.967 78.5444 166.865 73.5723Z" fill="url(#paint27_radial_813_6989)"/>
<path d="M49.4795 143.668C49.4795 143.484 49.4795 143.3 49.4805 143.116C49.473 143.15 49.4608 143.178 49.4533 143.212C49.4082 142.525 49.3248 141.841 49.1456 141.147C48.5519 138.836 45.633 139.548 44.1313 138.227C44.9436 136.889 46.1723 135.759 47.159 134.521C48.4731 132.871 48.8886 130.877 48.9702 128.835C48.9712 128.843 48.973 128.849 48.973 128.857C48.973 128.813 48.973 128.769 48.973 128.726C48.9796 128.565 48.9871 128.405 48.989 128.243C49.0012 127.067 49.0875 125.841 48.973 124.669C48.7217 122.092 46.9639 121.627 44.8207 120.746C42.5659 119.82 40.0485 118.051 38.8301 115.903C38.6819 115.587 38.5796 115.257 38.5055 114.919C38.65 113.093 38.7804 111.265 38.9079 109.438C39.3262 103.442 39.4585 97.3988 39.103 91.395C39.1621 92.378 39.0177 94.1732 39.0918 95.4329C39.5279 102.803 38.0966 110.104 38.347 117.469C38.4483 120.447 40.0832 121.921 42.4477 123.561C44.4446 124.947 47.3738 125.332 48.5134 127.362C47.8466 129.515 46.5165 131.113 44.8386 133.045C43.8528 134.18 43.4345 135.306 43.3088 136.646C43.3003 136.6 43.2872 136.564 43.2797 136.515V137.013C43.2703 137.19 43.2628 137.367 43.2609 137.552C43.2562 138.423 43.2412 139.288 43.2797 140.152V140.702C43.2825 140.662 43.2966 140.627 43.2994 140.588C43.3191 140.899 43.3491 141.209 43.3922 141.519C43.7346 144.009 46.843 143.39 48.4825 144.867C48.2189 145.138 47.9197 145.397 47.6027 145.69C46.2961 146.895 45.8375 148.927 45.2484 150.538C44.9717 151.291 44.8489 152.042 44.7945 152.8C44.7917 152.769 44.7842 152.739 44.7823 152.709C44.7823 152.796 44.7823 152.883 44.7823 152.971C44.7373 153.73 44.7551 154.496 44.757 155.283C44.7579 155.444 44.772 155.602 44.7785 155.763C44.7776 156.115 44.7776 156.467 44.7767 156.821C44.7879 156.714 44.8104 156.601 44.8236 156.492C45.2756 161.064 48.0426 165.23 48.9824 169.846C48.7714 170.642 48.4393 171.354 47.8897 172.131C47.2209 173.074 48.5359 175.404 47.8897 176.317C49.6981 173.765 49.352 170.346 49.2422 167.349C49.1456 164.705 48.203 162.121 47.3607 159.644C46.8129 158.032 45.7681 156.369 45.1894 154.667C45.7296 152.681 46.721 150.689 48.1214 149.396C49.0209 148.568 49.3313 147.883 49.4401 146.981C49.4495 147.066 49.4683 147.138 49.4739 147.229C49.4739 147.018 49.4739 146.807 49.4739 146.596C49.4908 146.339 49.4983 146.069 49.4992 145.767C49.502 145.051 49.5067 144.357 49.4795 143.668Z" fill="url(#paint28_radial_813_6989)"/>
<path d="M184.642 147.602C182.102 147.56 179.999 146.633 178.361 144.671C178.575 144.927 178.341 146.441 178.341 146.765C178.341 147.119 178.119 148.567 178.361 148.858C179.999 150.82 182.102 151.746 184.642 151.789C184.65 151.789 184.697 147.603 184.642 147.602Z" fill="url(#paint29_radial_813_6989)"/>
<path d="M148.359 78.0987C146.757 76.87 145.765 75.3487 145.009 73.4934C145.052 73.5985 144.995 74.0233 144.994 74.1059C144.99 74.5992 144.989 75.0926 144.989 75.586C144.989 76.1384 144.795 77.1552 145.009 77.6795C145.765 79.5347 146.756 81.0561 148.358 82.2848C148.186 82.1535 148.379 80.4108 148.379 80.1922C148.379 79.9474 148.569 78.2591 148.359 78.0987Z" fill="url(#paint30_radial_813_6989)"/>
<path d="M135.547 170.856C134.639 175.791 131.678 179.968 130.16 184.702C129.383 187.12 129.628 189.842 129.674 192.342C129.689 193.116 129.702 191.701 129.702 191.591C129.703 191.54 129.701 191.489 129.702 191.438C130.326 185.579 134.485 180.814 135.547 175.043C135.795 173.688 135.299 172.199 135.547 170.856Z" fill="url(#paint31_radial_813_6989)"/>
<path d="M24.6052 79.3547C22.6749 77.3691 21.298 74.9867 20.8375 72.2375C21.0626 73.5891 20.6086 75.0626 20.8375 76.4245C21.2971 79.1746 22.6749 81.557 24.6052 83.5426C24.4045 83.3353 24.6258 81.7324 24.6258 81.4491C24.6268 81.1349 24.8406 79.5957 24.6052 79.3547Z" fill="url(#paint32_radial_813_6989)"/>
<path d="M45.8535 54.681C43.7374 54.2317 41.7518 53.441 39.9922 52.1692C40.1564 52.2874 39.9716 54.0535 39.9716 54.2636C39.9716 54.4962 39.7906 56.2099 39.9922 56.3562C41.7518 57.629 43.7374 58.4187 45.8535 58.8689C45.6002 58.8145 46.1686 54.7485 45.8535 54.681Z" fill="url(#paint33_radial_813_6989)"/>
<path d="M276.108 26.4396C273.991 25.9903 272.005 25.2005 270.246 23.9277C270.41 24.0459 270.225 25.813 270.225 26.0212C270.225 26.2538 270.043 27.9675 270.246 28.1147C272.005 29.3875 273.991 30.1773 276.108 30.6266C275.854 30.5731 276.422 26.5071 276.108 26.4396Z" fill="url(#paint34_radial_813_6989)"/>
<path d="M213.336 153.541C210.898 151.943 207.236 150.458 206.636 147.261C206.889 148.603 206.382 150.095 206.636 151.448C207.236 154.645 210.898 156.131 213.336 157.728C213.185 157.63 213.358 155.828 213.358 155.636C213.358 155.419 213.528 153.667 213.336 153.541Z" fill="url(#paint35_radial_813_6989)"/>
<path d="M13.9998 135.05C13.9998 134.827 13.8057 133.093 13.9782 132.957C10.6044 135.602 6.71853 133.213 4.7676 130.026C4.98801 130.387 4.74602 131.705 4.74602 132.119C4.74602 132.564 4.52373 133.815 4.7676 134.212C6.71853 137.4 10.6054 139.789 13.9782 137.144C14.1902 136.977 13.9998 135.299 13.9998 135.05Z" fill="url(#paint36_radial_813_6989)"/>
<path d="M375.963 162.898C372.317 162.474 368.3 161.783 365.915 158.712C366.131 158.991 365.893 160.46 365.893 160.805C365.893 161.18 365.67 162.583 365.915 162.898C368.3 165.97 372.317 166.661 375.963 167.085C375.834 167.071 376.155 162.92 375.963 162.898Z" fill="url(#paint37_linear_813_6989)"/>
<path d="M356.738 242.028C356.705 238.571 354.554 236.014 351.236 235.092C351.567 235.184 350.847 239.171 351.236 239.279C352.689 239.683 353.93 240.385 354.992 241.458C355.311 241.78 355.565 242.153 355.799 242.538C355.194 242.665 354.442 242.623 354.022 242.562C353.03 242.418 352.255 241.699 351.655 240.954C351.87 241.221 351.635 242.714 351.635 243.048C351.635 243.413 351.412 244.839 351.655 245.141C352.768 246.519 354.127 247.038 355.865 246.666C356.793 246.467 356.716 246.134 356.735 245.317C356.759 244.221 356.75 243.124 356.738 242.028Z" fill="url(#paint38_linear_813_6989)"/>
<path d="M262.829 152.331C262.336 150.343 261.097 148.572 260.043 146.853C259.507 145.979 259.04 145.081 258.622 144.145C258.359 143.556 257.808 140.267 257.768 142.872C257.782 141.918 257.781 140.963 257.775 140.008C257.774 139.897 257.757 138.484 257.747 139.258C257.703 142.058 257.528 144.878 258.343 147.589C258.927 149.53 260.189 151.254 261.223 152.972C261.757 153.86 262.192 154.784 262.577 155.746C262.895 156.542 263.027 159.652 263.194 157.05C263.114 158.308 263.269 160.104 263.206 161.087C263.39 158.213 263.525 155.142 262.829 152.331Z" fill="url(#paint39_linear_813_6989)"/>
<path d="M322.791 54.981C322.791 54.8713 322.791 54.7606 322.791 54.6509C322.789 54.6996 322.779 54.74 322.776 54.7878C322.646 53.7317 322.305 52.7346 321.471 51.8051C319.073 49.132 314.693 49.0569 313.921 44.9844C314.175 46.3247 313.664 47.8189 313.921 49.1714C314.727 53.425 320.273 53.7289 322.175 56.9057C320.644 59.5507 316.629 60.075 314.324 62.161C312.669 63.658 313.235 68.2483 313.921 70.1064C313.551 69.1074 314.086 67.7662 314.041 66.6313C316.028 63.3757 322.314 63.7771 322.782 58.6925C322.784 58.7169 322.794 58.7375 322.796 58.7619C322.796 58.654 322.796 58.5471 322.796 58.4383C322.801 58.3417 322.81 58.2488 322.811 58.1485C322.822 57.0436 322.89 55.9865 322.791 54.981Z" fill="url(#paint40_linear_813_6989)"/>
<path d="M259.54 43.2634C258.195 47.3473 254.675 48.2177 250.747 47.8687C250.838 47.8772 250.592 52.0417 250.747 52.0557C254.676 52.4047 258.195 51.5333 259.54 47.4504C259.956 46.1823 259.128 44.5128 259.54 43.2634Z" fill="url(#paint41_linear_813_6989)"/>
<path d="M276.365 193.594C275.641 191.494 274.319 190.009 272.782 188.459C272.102 187.773 271.49 187.058 270.969 186.243C270.695 185.814 270.519 185.336 270.347 184.862C270.217 184.506 270.185 184.092 270.179 183.869C270.173 184.071 270.151 184.483 270.085 185.219C270.208 183.832 269.962 182.413 270.085 181.032C269.845 183.724 269.592 186.965 270.525 189.539C271.699 192.775 275.201 194.407 276.365 197.78C275.94 196.545 276.8 194.851 276.365 193.594Z" fill="url(#paint42_linear_813_6989)"/>
<path d="M270.18 183.871C270.174 183.686 270.186 183.641 270.18 183.871V183.871Z" fill="url(#paint43_linear_813_6989)"/>
<path d="M331.162 43.0635C331.066 46.8969 330.095 51.7498 328.237 55.1311C327.64 56.2154 328.818 58.2601 328.237 59.3172C330.126 55.8815 331.075 50.9985 331.173 47.1013C331.204 45.8379 331.137 44.0502 331.162 43.0635Z" fill="url(#paint44_linear_813_6989)"/>
<path d="M364.727 77.382C365.49 72.3321 364.607 67.2541 361.591 63.1215C359.303 59.9897 356.543 58.5124 353.093 57.0211C351.005 56.1188 348.482 55.1283 347.283 53.2092C348.664 50.8391 351.792 49.3402 353.966 48.0121C357.41 45.9101 361.464 43.4002 361.582 38.9037C361.656 36.0776 361.808 33.2075 361.153 30.4396C359.875 25.0417 354.241 22.3526 349.305 21.365C349.543 21.4119 349.006 25.492 349.305 25.552C355.861 26.8651 365.765 33.5818 358.785 40.4081C355.356 43.7604 347.151 45.7469 346.611 51.2077C346.608 51.173 346.6 51.142 346.598 51.1073V51.4572C346.592 51.5453 346.583 51.6307 346.583 51.7207C346.571 52.8585 346.491 54.0328 346.598 55.1742V55.2943C346.599 55.2755 346.603 55.2587 346.606 55.2408C346.671 55.9049 346.8 56.5568 347.045 57.1833C348.32 60.4446 354.68 61.7314 357.453 63.2397C360.777 65.048 365.342 70.9552 364.396 74.9058C363.612 78.1812 360.595 79.862 357.67 80.9003C352.287 82.8109 344.493 83.2601 343.145 90.1456C342.409 93.9115 343.126 97.5001 346.121 99.9547C350.526 103.567 356.258 105.187 360.134 109.519C360.974 110.458 361.551 111.566 361.969 112.744C362.002 112.838 362.025 112.929 362.045 113.017C361.837 114.048 361.257 115.027 360.766 115.938C359.162 118.917 358.812 120.989 358.831 124.274C358.852 127.926 360.132 130.709 358.282 134.148C356.289 137.853 352.529 140.202 350.562 144.044C349.989 145.161 351.121 147.139 350.562 148.231C352.41 144.622 355.4 142.239 357.804 139.069C359.756 136.494 359.793 133.3 359.793 130.226C359.793 126.954 358.639 123.975 360.252 121.024C361.839 118.123 362.354 115.851 362.345 112.645C362.329 107.058 359.447 103.989 354.837 101.101C351.719 99.1471 345.189 96.8116 343.512 92.816C346.496 83.8323 363.074 88.3598 364.727 77.382Z" fill="url(#paint45_radial_813_6989)"/>
<path d="M314.346 159.413C313.056 158.603 311.639 158.576 310.159 158.575C310.128 158.575 310.125 162.761 310.159 162.761C311.639 162.762 313.056 162.789 314.346 163.599C314.199 163.507 314.365 161.692 314.365 161.506C314.365 161.298 314.534 159.531 314.346 159.413Z" fill="url(#paint46_radial_813_6989)"/>
<path d="M306.497 42.2324C306.521 41.6818 306.518 41.1153 306.518 40.5309C306.518 40.2899 306.503 40.0657 306.493 39.8368C306.492 39.3951 306.492 38.9542 306.492 38.5125C306.487 38.6888 306.454 38.8567 306.431 39.0274C306.185 36.7923 305.355 35.0908 303.724 33.0658C302.689 31.7799 301.31 30.917 300.077 29.8552C299.072 28.9895 298.796 27.3771 298.644 25.9805C298.664 25.5266 298.685 25.0717 298.704 24.6168C298.761 23.3571 298.649 21.5647 298.693 20.5798C298.53 24.2594 298.174 28.0281 298.929 31.6626C299.349 33.6848 300.634 34.4465 302.13 35.6667C303.698 36.9451 305.155 38.6803 305.945 40.6125C304.254 44.0979 298.999 46.364 296.604 48.9762C295.895 49.75 297.285 52.4213 296.604 53.1632C299.058 50.4863 302.267 48.797 304.874 46.3068C306.054 45.1794 306.383 43.9103 306.476 42.525C306.482 42.5578 306.491 42.5906 306.496 42.6225C306.498 42.4931 306.497 42.3627 306.497 42.2324Z" fill="url(#paint47_radial_813_6989)"/>
<path d="M283.23 280.993C283.23 280.809 283.23 280.625 283.231 280.441C283.224 280.475 283.211 280.503 283.204 280.536C283.159 279.849 283.075 279.166 282.896 278.471C282.303 276.16 279.384 276.872 277.882 275.551C278.694 274.213 279.923 273.083 280.91 271.845C282.224 270.195 282.639 268.201 282.721 266.159C282.722 266.167 282.724 266.173 282.724 266.18C282.724 266.137 282.724 266.092 282.724 266.049C282.73 265.888 282.738 265.728 282.74 265.566C282.752 264.39 282.838 263.165 282.724 261.993C282.472 259.416 280.715 258.951 278.571 258.07C276.317 257.143 273.799 255.376 272.581 253.227C272.432 252.911 272.329 252.581 272.256 252.243C272.401 250.417 272.531 248.589 272.659 246.762C273.077 240.766 273.209 234.723 272.854 228.719C272.913 229.702 272.768 231.497 272.842 232.757C273.279 240.127 271.847 247.428 272.098 254.793C272.199 257.771 273.834 259.245 276.198 260.885C278.195 262.271 281.124 262.656 282.264 264.686C281.597 266.839 280.267 268.437 278.589 270.369C277.603 271.504 277.185 272.63 277.059 273.97C277.051 273.924 277.038 273.888 277.03 273.839V274.337C277.021 274.513 277.013 274.691 277.012 274.876C277.007 275.747 276.993 276.612 277.03 277.476V278.026C277.033 277.986 277.047 277.951 277.051 277.912C277.071 278.222 277.101 278.533 277.144 278.843C277.486 281.333 280.595 280.714 282.234 282.191C281.97 282.461 281.671 282.72 281.354 283.014C280.048 284.219 279.589 286.251 279 287.863C278.723 288.616 278.6 289.367 278.546 290.125C278.543 290.094 278.536 290.064 278.534 290.034C278.534 290.121 278.534 290.209 278.534 290.296C278.489 291.055 278.507 291.821 278.508 292.608C278.509 292.769 278.524 292.927 278.53 293.088C278.529 293.44 278.529 293.792 278.528 294.145C278.539 294.038 278.562 293.925 278.575 293.816C279.027 298.388 281.794 302.554 282.735 307.17C282.524 307.966 282.192 308.678 281.642 309.455C280.973 310.398 282.288 312.728 281.642 313.641C283.451 311.089 283.104 307.67 282.995 304.673C282.899 302.029 281.955 299.445 281.113 296.968C280.565 295.356 279.521 293.693 278.942 291.991C279.482 290.004 280.474 288.013 281.874 286.72C282.773 285.892 283.084 285.207 283.193 284.305C283.202 284.39 283.221 284.462 283.226 284.553C283.226 284.342 283.226 284.131 283.226 283.92C283.243 283.663 283.251 283.393 283.252 283.091C283.253 282.376 283.257 281.682 283.23 280.993Z" fill="url(#paint48_radial_813_6989)"/>
<path d="M289.786 59.0114C287.856 57.0258 286.479 54.6434 286.019 51.8943C286.244 53.2459 285.79 54.7194 286.019 56.0813C286.478 58.8313 287.856 61.2137 289.786 63.1994C289.586 62.9921 289.807 61.3891 289.807 61.1059C289.807 60.7917 290.022 59.2525 289.786 59.0114Z" fill="url(#paint49_radial_813_6989)"/>
<path d="M376.87 91.8536C374.754 91.4043 372.768 90.6137 371.009 89.3418C371.173 89.46 370.988 91.2261 370.988 91.4353C370.988 91.6679 370.807 93.3815 371.009 93.5279C372.768 94.8006 374.754 95.5904 376.87 96.0406C376.617 95.9872 377.185 91.9202 376.87 91.8536Z" fill="url(#paint50_radial_813_6989)"/>
<path d="M386.506 247.356C386.506 247.133 386.311 245.399 386.485 245.263C383.111 247.909 379.225 245.519 377.274 242.332C377.495 242.693 377.254 244.01 377.254 244.424C377.254 244.87 377.031 246.12 377.274 246.519C379.225 249.706 383.112 252.096 386.485 249.45C386.696 249.284 386.506 247.606 386.506 247.356Z" fill="url(#paint51_radial_813_6989)"/>
<path d="M129.226 160.3C129.251 159.623 129.248 158.917 129.23 158.17C129.23 158.163 129.23 158.155 129.23 158.148C129.23 158.148 129.23 158.15 129.23 158.152C129.223 157.921 129.215 157.687 129.207 157.447C129.13 155.314 127.33 153.478 126.027 151.969C124.034 149.661 122.267 147.251 121.553 144.316C121.738 143.201 121.996 142.099 122.25 140.981C122.553 139.648 121.95 138.112 122.25 136.794C121.495 140.109 120.894 143.656 121.294 147.086C121.674 150.354 123.368 153.002 125.439 155.475C126.694 156.974 128.055 158.366 128.754 160.108C128.237 161.514 127.396 162.746 126.437 164.009C125.754 164.91 127.097 167.326 126.437 168.195C128.202 165.869 128.903 163.839 129.139 161.549C129.175 161.782 129.215 162.013 129.224 162.26C129.224 161.606 129.226 160.953 129.226 160.3Z" fill="url(#paint52_radial_813_6989)"/>
<path d="M325.169 359.012L345.432 379.437L362.817 396.948H393V297.471L391.877 292.519L306.002 339.695L306.683 340.377L325.169 359.012Z" fill="#00AAE8"/>
<path d="M393 325.314C366.078 337.028 336.505 342.285 306.682 340.377L325.169 359.012C348.105 359.972 371.023 357.08 393 350.541V325.314Z" fill="#FDE8DC"/>
<path d="M369.669 396.948C377.518 395.917 385.308 394.441 393 392.527V368.502C377.738 374.205 361.744 377.889 345.432 379.436L362.817 396.947L369.669 396.948Z" fill="#FDE8DC"/>
<path d="M325.169 359.012L345.433 379.436L362.818 396.948H382.531C382.422 396.792 382.311 396.634 382.201 396.479C365.2 372.297 350.781 346.97 344.396 318.603L306.003 339.695L306.683 340.377L325.169 359.012Z" fill="#C5DCEA"/>
<path d="M391.877 292.519C394.828 297.893 377.998 312.81 354.284 325.837C330.57 338.864 308.953 345.07 306.002 339.695C303.049 334.322 319.88 319.405 343.593 306.377C367.307 293.351 388.923 287.147 391.877 292.519Z" fill="#007EBD"/>
<path d="M318.547 340.647C327.647 338.582 340.613 333.347 354.284 325.838C367.175 318.756 378.025 311.118 384.775 304.756C375.926 305.316 347.39 307.779 318.547 340.647Z" fill="#6FA8C4"/>
<path d="M393 297.473L392.095 293.483C390.545 307.034 391.176 320.703 393 334.344V297.473Z" fill="white"/>
<path d="M365.82 145.282C365.82 145.282 352.04 143.662 346.088 155.301C343.377 160.6 339.198 152.338 342.159 148.148C345.118 143.957 348.851 140.192 357.152 140.429C364.896 140.649 365.82 145.282 365.82 145.282Z" fill="#7F4795"/>
<path d="M341.821 270.156C347.77 265.876 342.121 256.621 341.134 254.812C340.506 253.659 343.655 264.586 331.486 267.494C319.357 270.389 303.699 270.343 305.411 280.862C305.778 283.109 307.344 285.742 309.181 287.925L309.262 288.069C309.247 288.041 309.242 288.014 309.231 287.983C310.456 289.431 311.795 290.68 312.988 291.466C320.634 296.489 330.803 297.064 339.132 300.509C349.548 304.815 354.745 314.64 345.495 322.973C345.052 323.37 349.275 328.865 348.911 329.193C358.184 320.841 351.853 311.072 346.189 302.618C340.904 294.732 331.29 292.541 322.735 290.205C318.235 288.976 312.678 287.674 308.721 284.719C309.941 277.579 335.873 274.436 341.821 270.156Z" fill="#6B3B7D"/>
<path d="M336.844 238.888C336.844 238.888 338.005 242.163 333.337 243.998C326.104 246.837 318.925 249.815 311.705 252.695C305.696 255.093 297.579 256.352 293.056 261.238C290.919 263.548 294.127 271.257 294.127 271.257C294.127 271.257 294.246 268.675 297.563 266.601C299.923 265.127 303.596 263.077 308.947 261.306C319.159 257.926 326.556 254.182 336.587 250.292C342.277 247.032 336.844 238.888 336.844 238.888Z" fill="#6B3B7D"/>
<path d="M294.283 158.799C294.917 157.827 290.282 153.472 290.866 152.578C283.703 163.548 294.266 177.296 301.629 185.434C303.944 187.994 306.414 190.409 308.733 192.966C309.978 194.338 313.383 200.598 313.837 201.896C316.542 209.643 316.302 218.939 309.598 224.318C309.237 224.606 312.971 229.434 312.694 229.657C324.549 220.147 316.465 204.866 310.546 194.342C304.287 183.211 284.992 173.027 294.283 158.799Z" fill="#6B3B7D"/>
<path d="M338.859 243.405C338.421 240.996 336.464 238.196 336.38 238.062C336.191 237.72 335.957 237.361 336.021 237.522C333.983 234.716 331.155 234.473 327.475 234.953C320.147 235.914 307.363 244.412 299.749 240.398C300.524 234.291 306.538 233.816 312.695 229.656C320.515 224.369 318.761 215.294 318.715 215.392C313.801 225.901 292.934 229.613 296.918 237.954C296.89 237.921 296.839 237.86 296.839 237.86C296.839 237.86 299.074 241.948 299.994 243.2C300.913 244.452 305.415 248.252 311.02 247.444C316.865 246.603 329.419 238.254 336.37 240.983C337.549 241.127 338.859 243.405 338.859 243.405Z" fill="#7F4795"/>
<path d="M338.953 251.715C326.012 238.075 313.705 261.704 301.361 268.362C296.642 270.908 292.936 264.691 292.618 261.95C292.551 261.99 291.222 265.971 294.126 271.259C296.093 274.84 301.783 278.217 305.068 275.232C314.683 266.501 331.157 247.563 340.785 256.243C342.497 257.784 343.333 259.421 343.333 259.421C342.36 257.051 340.732 253.588 338.953 251.715Z" fill="#7F4795"/>
<path d="M359.423 184.998C351.911 188.229 342.43 185.981 340.554 196.434C339.914 200.012 343.347 204.645 345.093 207.572C346.325 209.633 348.003 210.675 349.851 211.022L346.662 205.219C345.819 204.984 344.969 204.551 344.113 203.881C343.873 200.697 345.381 197.884 348.076 195.439C351.893 191.972 358.3 193.172 362.842 191.218C362.682 191.287 359.682 184.888 359.423 184.998Z" fill="#EA572E"/>
<path d="M381.95 196.034C381.806 195.775 381.666 195.517 381.527 195.259C381.536 195.301 381.534 195.339 381.544 195.38C380.113 193.193 378.402 191.402 375.475 190.066C363.974 184.819 354.661 212.113 344.114 203.882L342.167 202.703C343.125 204.509 344.288 206.222 345.094 207.573C349.125 214.312 357.887 210.275 361.922 206.01C365.065 202.688 367.002 198.937 371.08 196.571C374.42 194.629 378.67 195.576 381.732 197.839C381.564 201.16 379.645 204.016 377.634 206.845C377.012 207.724 381.62 212.265 381.053 213.065C383.725 209.308 386.336 205.266 384.565 200.862C384.606 200.93 384.656 200.996 384.696 201.065C384.621 200.927 384.546 200.791 384.473 200.653C384.367 200.412 384.258 200.17 384.126 199.925C383.363 198.519 382.679 197.227 381.95 196.034Z" fill="#E6332A"/>
<path d="M350.127 174.959C344.326 172.361 338.543 175.575 334.721 179.854C328.849 186.432 327.758 192.533 327.722 201.021C327.711 203.116 331.146 205.201 331.139 207.242C331.181 197.323 333.31 190.184 340.913 183.271C347.142 177.607 355.55 180.763 360.216 186.435C360.527 187.063 360.844 187.689 361.183 188.308C362.211 190.175 362.7 191.031 362.655 190.907C362.707 191.004 362.758 191.098 362.809 191.194C360.245 184.819 356.629 177.872 350.127 174.959Z" fill="#E6332A"/>
<path d="M261.462 218.687C254.484 224.965 240.989 226.291 234.164 219.108C235.731 220.755 235.997 223.661 237.581 225.328C244.406 232.51 257.903 231.185 264.879 224.907C265.322 224.51 261.099 219.014 261.462 218.687Z" fill="#EA572E"/>
<path d="M335.797 126.028C330.606 125.948 325.339 127.386 322.258 131.846C321.631 132.757 326.25 137.234 325.677 138.065C328.756 133.605 334.022 132.168 339.215 132.248C338.954 132.244 337.679 129.378 337.537 129.121C337.379 128.833 336.143 126.034 335.797 126.028Z" fill="#EA572E"/>
<path d="M257.231 180.526C252.542 181.84 247.076 182.293 242.994 179.17C243.682 179.699 244.26 181.547 244.672 182.297C245.106 183.091 245.669 184.825 246.41 185.391C250.494 188.513 255.959 188.06 260.647 186.746C260.183 186.875 257.798 180.366 257.231 180.526Z" fill="#EA572E"/>
<path d="M15.2529 289.437L15.0475 290.286L9.36634 313.327L3.13931 338.579L0 351.331V396.948H26.7681L29.6382 394.164L45.6996 378.566L55.9439 368.617L72.0081 353.012L92.0877 333.512L15.2529 289.437Z" fill="#F39200"/>
<path d="M72.0082 353.012L55.943 368.617C36.9768 353.36 21.1433 334.59 9.36639 313.326L15.0475 290.285C28.5118 315.908 48.1815 337.443 72.0082 353.012Z" fill="#FDE8DC"/>
<path d="M3.13931 338.579L0 351.331V364.217C8.71353 375.246 18.6398 385.304 29.6382 394.163L45.6996 378.566C29.3193 367.852 14.9096 354.314 3.13931 338.579Z" fill="#FDE8DC"/>
<path d="M0 389.268V396.948H9.29037C6.10041 394.503 3.00612 391.937 0 389.268Z" fill="#FDE8DC"/>
<path d="M15.2529 289.437L15.0475 290.286L9.36634 313.327L3.13837 338.579L0 351.331V391.849C2.41146 386.209 4.85669 380.584 7.29442 374.98C17.9533 350.473 30.714 327.423 49.6043 309.143L15.2529 289.437Z" fill="#E9D0CA"/>
<path d="M92.0878 333.512C89.3302 338.321 69.894 332.351 48.6767 320.18C27.4594 308.009 12.4945 294.247 15.253 289.437C18.0105 284.629 37.4467 290.599 58.664 302.769C79.8813 314.941 94.8453 328.704 92.0878 333.512Z" fill="#B26000"/>
<path d="M20.4239 299.569C26.302 305.623 36.445 313.165 48.6758 320.18C60.2116 326.797 71.2137 331.574 79.3017 333.791C74.7038 327.226 59.3712 306.361 20.4239 299.569Z" fill="#E9D0CA"/>
<path d="M26.7681 396.948L29.6373 394.164L45.6996 378.567L55.9439 368.617L72.009 353.012L91.4471 334.135C73.673 342.367 58.2569 354.983 43.7946 368.667C34.3054 377.652 25.7082 387.328 16.929 396.947L26.7681 396.948Z" fill="white"/>
<path d="M193.82 237.182C193.82 237.182 188.583 225.785 176.798 226.669C171.43 227.072 175.841 219.957 180.469 220.269C185.097 220.58 189.76 221.689 193.486 228.208C196.959 234.289 193.82 237.182 193.82 237.182Z" fill="#7F4795"/>
<path d="M86.1392 277.441C92.2433 280.017 96.7276 271.302 97.6581 269.687C98.2528 268.66 91.2997 276.234 83.3291 268.208C75.3837 260.211 68.0499 248.102 60.7377 254.377C59.175 255.718 57.8797 258.166 57.0618 260.613L56.9878 260.742C57.0028 260.718 57.0206 260.701 57.0393 260.678C56.4981 262.305 56.1652 263.927 56.1211 265.216C55.8425 273.482 60.1852 281.601 61.4468 289.653C63.0272 299.718 57.8882 308.354 47.1037 305.136C46.5906 304.983 44.3358 310.827 43.9109 310.702C54.7226 313.927 59.2838 304.443 63.1407 296.091C66.7405 288.299 63.9051 279.849 61.6803 272.146C60.5107 268.094 58.8993 263.19 59.3176 258.746C65.4021 256.327 80.035 274.864 86.1392 277.441Z" fill="#6B3B7D"/>
<path d="M107.93 258.88C107.93 258.88 105.948 261.319 102.336 258.578C96.738 254.332 91.0606 250.193 85.4385 245.977C80.7591 242.467 75.9671 236.794 70.0646 235.603C67.2761 235.042 62.8359 241.147 62.8359 241.147C62.8359 241.147 64.8862 240.023 68.0481 241.607C70.2963 242.734 73.6063 244.603 77.4932 247.901C84.9095 254.193 91.2801 258.139 99.0041 264.05C104.201 266.906 107.93 258.88 107.93 258.88Z" fill="#6B3B7D"/>
<path d="M149.71 188.33C150.76 188.363 151.94 182.735 152.902 182.764C141.065 182.4 135.428 197.025 132.609 206.537C131.725 209.53 131.023 212.573 130.141 215.567C129.667 217.174 126.44 222.749 125.653 223.709C120.945 229.444 113.658 233.635 106.35 230.991C105.96 230.85 103.99 236.005 103.686 235.895C116.608 240.569 124.597 227.135 129.932 217.613C135.577 207.543 134.355 187.857 149.71 188.33Z" fill="#6B3B7D"/>
<path d="M105.392 262.562C107.045 261.09 108.285 258.261 108.349 258.133C108.524 257.827 108.691 257.477 108.596 257.604C109.803 254.71 108.661 252.412 106.555 249.798C102.366 244.594 89.7859 238.726 89.301 230.959C94.3819 228.684 97.5784 233.104 103.686 235.896C111.448 239.444 117.626 233.817 117.53 233.828C107.107 234.98 94.4194 220.622 89.8563 227.623C89.8694 227.588 89.89 227.52 89.89 227.52C89.89 227.52 87.789 231.169 87.2553 232.468C86.7207 233.767 85.9094 239.031 89.1697 242.976C92.5698 247.091 104.924 252.851 106.088 259.501C106.534 260.478 105.392 262.562 105.392 262.562Z" fill="#7F4795"/>
<path d="M99.0219 266.545C103.457 250.137 79.4282 251.759 68.4795 245.367C64.2934 242.924 67.3474 237.136 69.3133 235.601C69.2505 235.566 65.5522 236.416 62.8377 241.147C61.0012 244.351 61.0716 250.331 64.9228 251.463C76.1866 254.774 98.5595 258.575 96.3919 270.092C96.0092 272.139 95.1388 273.552 95.1388 273.552C96.5082 271.689 98.415 268.801 99.0219 266.545Z" fill="#7F4795"/>
<path d="M160.153 250.942C154.123 246.664 151.394 238.289 142.443 241.76C139.38 242.949 137.421 247.781 135.983 250.506C134.974 252.428 134.958 254.212 135.558 255.801L138.536 250.61C138.321 249.847 138.257 248.989 138.369 248.013C140.714 246.329 143.595 246.168 146.752 247.097C151.226 248.411 153.315 253.921 156.96 256.507C156.833 256.417 160.36 251.088 160.153 250.942Z" fill="#EA572E"/>
<path d="M162.238 273.521C162.372 273.289 162.503 273.06 162.637 272.83C162.611 272.856 162.578 272.873 162.551 272.9C163.567 270.766 164.143 268.602 163.797 265.714C162.433 254.368 136.981 260.028 138.37 248.012L138.364 245.953C137.422 247.543 136.647 249.248 135.984 250.505C132.678 256.788 139.92 261.65 145.111 262.758C149.154 263.62 152.96 263.352 156.707 265.383C159.777 267.046 161.047 270.773 160.742 274.201C158.101 275.636 154.992 275.499 151.863 275.278C150.892 275.21 149.555 280.905 148.67 280.844C152.829 281.136 157.176 281.252 159.743 277.81C159.709 277.874 159.682 277.943 159.649 278.005C159.719 277.883 159.789 277.761 159.861 277.639C159.998 277.444 160.132 277.247 160.26 277.03C160.985 275.782 161.66 274.647 162.238 273.521Z" fill="#E6332A"/>
<path d="M163.524 239.042C162.799 233.339 157.596 230.387 152.495 229.453C144.653 228.016 139.43 230.046 132.86 234.015C131.24 234.993 131.25 238.626 129.669 239.579C137.345 234.943 143.856 233.226 152.771 235.84C160.074 237.981 161.598 245.956 159.416 252.229C159.078 252.764 158.744 253.304 158.426 253.857C157.469 255.527 157.039 256.311 157.114 256.217C157.064 256.301 157.013 256.385 156.965 256.471C160.679 251.491 164.339 245.43 163.524 239.042Z" fill="#E6332A"/>
<path d="M88.0367 191.189C79.9066 188.757 72.5324 178.965 74.8632 170.317C74.3277 172.3 72.2126 173.875 71.6705 175.882C69.3406 184.53 76.7148 194.322 84.8449 196.753C85.3589 196.908 87.6156 191.063 88.0367 191.189Z" fill="#EA572E"/>
<path d="M194.546 204.947C192.165 200.901 188.575 197.514 183.682 197.237C182.684 197.18 181.402 202.853 180.491 202.802C185.383 203.079 188.973 206.467 191.354 210.512C191.233 210.307 192.846 207.975 192.977 207.746C193.126 207.488 194.704 205.215 194.546 204.947Z" fill="#EA572E"/>
<path d="M115.502 169.96C112.281 166.96 109.358 162.955 109.847 158.333C109.763 159.114 108.607 160.429 108.222 161.099C107.814 161.809 106.741 163.06 106.654 163.898C106.166 168.52 109.09 172.526 112.31 175.525C111.987 175.226 115.891 170.322 115.502 169.96Z" fill="#EA572E"/>
</g>
<defs>
<linearGradient id="paint0_linear_813_6989" x1="2.59351" y1="213.384" x2="22.7448" y2="213.384" gradientUnits="userSpaceOnUse">
<stop offset="0.0053" stop-color="#D0C2E1"/>
<stop offset="0.2421" stop-color="#A77BB5"/>
<stop offset="0.4448" stop-color="#8B4393"/>
<stop offset="0.5401" stop-color="#803089"/>
<stop offset="0.5548" stop-color="#7C2E84"/>
<stop offset="0.625" stop-color="#68256E"/>
<stop offset="0.6932" stop-color="#561D5A"/>
<stop offset="0.7579" stop-color="#471549"/>
<stop offset="0.818" stop-color="#3C0D3C"/>
<stop offset="0.8719" stop-color="#340733"/>
<stop offset="0.9144" stop-color="#320530"/>
</linearGradient>
<linearGradient id="paint1_linear_813_6989" x1="57.7245" y1="138.28" x2="67.9503" y2="138.28" gradientUnits="userSpaceOnUse">
<stop offset="0.0107" stop-color="#D4EDFC"/>
<stop offset="0.3592" stop-color="#00B7ED"/>
<stop offset="0.5401" stop-color="#009FE3"/>
<stop offset="0.6194" stop-color="#0090CF"/>
<stop offset="0.8233" stop-color="#006C9F"/>
<stop offset="0.9198" stop-color="#005E8C"/>
</linearGradient>
<linearGradient id="paint2_linear_813_6989" x1="124.898" y1="47.392" x2="132.609" y2="47.392" gradientUnits="userSpaceOnUse">
<stop offset="0.0107" stop-color="#D4EDFC"/>
<stop offset="0.3592" stop-color="#00B7ED"/>
<stop offset="0.5401" stop-color="#009FE3"/>
<stop offset="0.6194" stop-color="#0090CF"/>
<stop offset="0.8233" stop-color="#006C9F"/>
<stop offset="0.9198" stop-color="#005E8C"/>
</linearGradient>
<linearGradient id="paint3_linear_813_6989" x1="47.471" y1="220.259" x2="53.1041" y2="220.259" gradientUnits="userSpaceOnUse">
<stop offset="0.0107" stop-color="#D4EDFC"/>
<stop offset="0.3592" stop-color="#00B7ED"/>
<stop offset="0.5401" stop-color="#009FE3"/>
<stop offset="0.6194" stop-color="#0090CF"/>
<stop offset="0.8233" stop-color="#006C9F"/>
<stop offset="0.9198" stop-color="#005E8C"/>
</linearGradient>
<linearGradient id="paint4_linear_813_6989" x1="156.369" y1="178.043" x2="164.603" y2="178.043" gradientUnits="userSpaceOnUse">
<stop offset="0.0107" stop-color="#D4EDFC"/>
<stop offset="0.3592" stop-color="#00B7ED"/>
<stop offset="0.5401" stop-color="#009FE3"/>
<stop offset="0.6194" stop-color="#0090CF"/>
<stop offset="0.8233" stop-color="#006C9F"/>
<stop offset="0.9198" stop-color="#005E8C"/>
</linearGradient>
<linearGradient id="paint5_linear_813_6989" x1="19.9179" y1="134.153" x2="25.5715" y2="134.153" gradientUnits="userSpaceOnUse">
<stop offset="0.0107" stop-color="#D4EDFC"/>
<stop offset="0.3592" stop-color="#00B7ED"/>
<stop offset="0.5401" stop-color="#009FE3"/>
<stop offset="0.6194" stop-color="#0090CF"/>
<stop offset="0.8233" stop-color="#006C9F"/>
<stop offset="0.9198" stop-color="#005E8C"/>
</linearGradient>
<linearGradient id="paint6_linear_813_6989" x1="17.9451" y1="39.2654" x2="27.5453" y2="39.2654" gradientUnits="userSpaceOnUse">
<stop offset="0.0107" stop-color="#D4EDFC"/>
<stop offset="0.3592" stop-color="#00B7ED"/>
<stop offset="0.5401" stop-color="#009FE3"/>
<stop offset="0.6194" stop-color="#0090CF"/>
<stop offset="0.8233" stop-color="#006C9F"/>
<stop offset="0.9198" stop-color="#005E8C"/>
</linearGradient>
<linearGradient id="paint7_linear_813_6989" x1="223.273" y1="23.9275" x2="236.58" y2="23.9275" gradientUnits="userSpaceOnUse">
<stop offset="0.0107" stop-color="#D4EDFC"/>
<stop offset="0.3592" stop-color="#00B7ED"/>
<stop offset="0.5401" stop-color="#009FE3"/>
<stop offset="0.6194" stop-color="#0090CF"/>
<stop offset="0.8233" stop-color="#006C9F"/>
<stop offset="0.9198" stop-color="#005E8C"/>
</linearGradient>
<linearGradient id="paint8_linear_813_6989" x1="8.18628" y1="100.556" x2="17.1523" y2="100.556" gradientUnits="userSpaceOnUse">
<stop offset="0.0053" stop-color="#D0C2E1"/>
<stop offset="0.2421" stop-color="#A77BB5"/>
<stop offset="0.4448" stop-color="#8B4393"/>
<stop offset="0.5401" stop-color="#803089"/>
<stop offset="0.5548" stop-color="#7C2E84"/>
<stop offset="0.625" stop-color="#68256E"/>
<stop offset="0.6932" stop-color="#561D5A"/>
<stop offset="0.7579" stop-color="#471549"/>
<stop offset="0.818" stop-color="#3C0D3C"/>
<stop offset="0.8719" stop-color="#340733"/>
<stop offset="0.9144" stop-color="#320530"/>
</linearGradient>
<linearGradient id="paint9_linear_813_6989" x1="181.458" y1="178.273" x2="187.047" y2="178.273" gradientUnits="userSpaceOnUse">
<stop offset="0.0053" stop-color="#D0C2E1"/>
<stop offset="0.2421" stop-color="#A77BB5"/>
<stop offset="0.4448" stop-color="#8B4393"/>
<stop offset="0.5401" stop-color="#803089"/>
<stop offset="0.5548" stop-color="#7C2E84"/>
<stop offset="0.625" stop-color="#68256E"/>
<stop offset="0.6932" stop-color="#561D5A"/>
<stop offset="0.7579" stop-color="#471549"/>
<stop offset="0.818" stop-color="#3C0D3C"/>
<stop offset="0.8719" stop-color="#340733"/>
<stop offset="0.9144" stop-color="#320530"/>
</linearGradient>
<linearGradient id="paint10_linear_813_6989" x1="28.9992" y1="190.089" x2="35.6281" y2="190.089" gradientUnits="userSpaceOnUse">
<stop offset="0.0053" stop-color="#D0C2E1"/>
<stop offset="0.2421" stop-color="#A77BB5"/>
<stop offset="0.4448" stop-color="#8B4393"/>
<stop offset="0.5401" stop-color="#803089"/>
<stop offset="0.5548" stop-color="#7C2E84"/>
<stop offset="0.625" stop-color="#68256E"/>
<stop offset="0.6932" stop-color="#561D5A"/>
<stop offset="0.7579" stop-color="#471549"/>
<stop offset="0.818" stop-color="#3C0D3C"/>
<stop offset="0.8719" stop-color="#340733"/>
<stop offset="0.9144" stop-color="#320530"/>
</linearGradient>
<linearGradient id="paint11_linear_813_6989" x1="29.3141" y1="184.474" x2="29.3179" y2="184.474" gradientUnits="userSpaceOnUse">
<stop offset="0.0053" stop-color="#D0C2E1"/>
<stop offset="0.2421" stop-color="#A77BB5"/>
<stop offset="0.4448" stop-color="#8B4393"/>
<stop offset="0.5401" stop-color="#803089"/>
<stop offset="0.5548" stop-color="#7C2E84"/>
<stop offset="0.625" stop-color="#68256E"/>
<stop offset="0.6932" stop-color="#561D5A"/>
<stop offset="0.7579" stop-color="#471549"/>
<stop offset="0.818" stop-color="#3C0D3C"/>
<stop offset="0.8719" stop-color="#340733"/>
<stop offset="0.9144" stop-color="#320530"/>
</linearGradient>
<linearGradient id="paint12_linear_813_6989" x1="135.41" y1="28.3476" x2="141.441" y2="28.3476" gradientUnits="userSpaceOnUse">
<stop offset="0.0053" stop-color="#D0C2E1"/>
<stop offset="0.2421" stop-color="#A77BB5"/>
<stop offset="0.4448" stop-color="#8B4393"/>
<stop offset="0.5401" stop-color="#803089"/>
<stop offset="0.5548" stop-color="#7C2E84"/>
<stop offset="0.625" stop-color="#68256E"/>
<stop offset="0.6932" stop-color="#561D5A"/>
<stop offset="0.7579" stop-color="#471549"/>
<stop offset="0.818" stop-color="#3C0D3C"/>
<stop offset="0.8719" stop-color="#340733"/>
<stop offset="0.9144" stop-color="#320530"/>
</linearGradient>
<linearGradient id="paint13_linear_813_6989" x1="60.1096" y1="47.392" x2="63.2282" y2="47.392" gradientUnits="userSpaceOnUse">
<stop offset="0.0053" stop-color="#D0C2E1"/>
<stop offset="0.2421" stop-color="#A77BB5"/>
<stop offset="0.4448" stop-color="#8B4393"/>
<stop offset="0.5401" stop-color="#803089"/>
<stop offset="0.5548" stop-color="#7C2E84"/>
<stop offset="0.625" stop-color="#68256E"/>
<stop offset="0.6932" stop-color="#561D5A"/>
<stop offset="0.7579" stop-color="#471549"/>
<stop offset="0.818" stop-color="#3C0D3C"/>
<stop offset="0.8719" stop-color="#340733"/>
<stop offset="0.9144" stop-color="#320530"/>
</linearGradient>
<linearGradient id="paint14_linear_813_6989" x1="209.996" y1="213.391" x2="217.201" y2="213.391" gradientUnits="userSpaceOnUse">
<stop offset="0.0053" stop-color="#D0C2E1"/>
<stop offset="0.2421" stop-color="#A77BB5"/>
<stop offset="0.4448" stop-color="#8B4393"/>
<stop offset="0.5401" stop-color="#803089"/>
<stop offset="0.5548" stop-color="#7C2E84"/>
<stop offset="0.625" stop-color="#68256E"/>
<stop offset="0.6932" stop-color="#561D5A"/>
<stop offset="0.7579" stop-color="#471549"/>
<stop offset="0.818" stop-color="#3C0D3C"/>
<stop offset="0.8719" stop-color="#340733"/>
<stop offset="0.9144" stop-color="#320530"/>
</linearGradient>
<linearGradient id="paint15_linear_813_6989" x1="190.674" y1="40.058" x2="193.433" y2="40.058" gradientUnits="userSpaceOnUse">
<stop offset="0.0053" stop-color="#D0C2E1"/>
<stop offset="0.2421" stop-color="#A77BB5"/>
<stop offset="0.4448" stop-color="#8B4393"/>
<stop offset="0.5401" stop-color="#803089"/>
<stop offset="0.5548" stop-color="#7C2E84"/>
<stop offset="0.625" stop-color="#68256E"/>
<stop offset="0.6932" stop-color="#561D5A"/>
<stop offset="0.7579" stop-color="#471549"/>
<stop offset="0.818" stop-color="#3C0D3C"/>
<stop offset="0.8719" stop-color="#340733"/>
<stop offset="0.9144" stop-color="#320530"/>
</linearGradient>
<linearGradient id="paint16_linear_813_6989" x1="193.152" y1="43.7135" x2="193.187" y2="43.7135" gradientUnits="userSpaceOnUse">
<stop offset="0.0053" stop-color="#D0C2E1"/>
<stop offset="0.2421" stop-color="#A77BB5"/>
<stop offset="0.4448" stop-color="#8B4393"/>
<stop offset="0.5401" stop-color="#803089"/>
<stop offset="0.5548" stop-color="#7C2E84"/>
<stop offset="0.625" stop-color="#68256E"/>
<stop offset="0.6932" stop-color="#561D5A"/>
<stop offset="0.7579" stop-color="#471549"/>
<stop offset="0.818" stop-color="#3C0D3C"/>
<stop offset="0.8719" stop-color="#340733"/>
<stop offset="0.9144" stop-color="#320530"/>
</linearGradient>
<radialGradient id="paint17_radial_813_6989" cx="0" cy="0" r="1" gradientUnits="userSpaceOnUse" gradientTransform="translate(93.4254 171.585) scale(45.5307 27.4049)">
<stop offset="0.0053" stop-color="#FFFCDF"/>
<stop offset="0.3616" stop-color="#BCD362"/>
<stop offset="0.5401" stop-color="#95C11F"/>
<stop offset="0.7536" stop-color="#64B32F"/>
<stop offset="0.9144" stop-color="#3AAA35"/>
</radialGradient>
<radialGradient id="paint18_radial_813_6989" cx="0" cy="0" r="1" gradientUnits="userSpaceOnUse" gradientTransform="translate(206.563 51.1902) scale(3.19278 3.19277)">
<stop offset="0.0053" stop-color="#FFFCDF"/>
<stop offset="0.3616" stop-color="#BCD362"/>
<stop offset="0.5401" stop-color="#95C11F"/>
<stop offset="0.7536" stop-color="#64B32F"/>
<stop offset="0.9144" stop-color="#3AAA35"/>
</radialGradient>
<radialGradient id="paint19_radial_813_6989" cx="0" cy="0" r="1" gradientUnits="userSpaceOnUse" gradientTransform="translate(202.702 23.0543) scale(4.19732)">
<stop offset="0.0053" stop-color="#FFFCDF"/>
<stop offset="0.3616" stop-color="#BCD362"/>
<stop offset="0.5401" stop-color="#95C11F"/>
<stop offset="0.7536" stop-color="#64B32F"/>
<stop offset="0.9144" stop-color="#3AAA35"/>
</radialGradient>
<radialGradient id="paint20_radial_813_6989" cx="0" cy="0" r="1" gradientUnits="userSpaceOnUse" gradientTransform="translate(174.335 54.7025) scale(3.32765)">
<stop offset="0.0053" stop-color="#FFFCDF"/>
<stop offset="0.3616" stop-color="#BCD362"/>
<stop offset="0.5401" stop-color="#95C11F"/>
<stop offset="0.7536" stop-color="#64B32F"/>
<stop offset="0.9144" stop-color="#3AAA35"/>
</radialGradient>
<radialGradient id="paint21_radial_813_6989" cx="0" cy="0" r="1" gradientUnits="userSpaceOnUse" gradientTransform="translate(108.887 64.3645) scale(2.33821 2.33821)">
<stop offset="0.0053" stop-color="#FFFCDF"/>
<stop offset="0.3616" stop-color="#BCD362"/>
<stop offset="0.5401" stop-color="#95C11F"/>
<stop offset="0.7536" stop-color="#64B32F"/>
<stop offset="0.9144" stop-color="#3AAA35"/>
</radialGradient>
<radialGradient id="paint22_radial_813_6989" cx="0" cy="0" r="1" gradientUnits="userSpaceOnUse" gradientTransform="translate(201.208 187.666) scale(3.00453 3.00453)">
<stop offset="0.0053" stop-color="#FFFCDF"/>
<stop offset="0.3616" stop-color="#BCD362"/>
<stop offset="0.5401" stop-color="#95C11F"/>
<stop offset="0.7536" stop-color="#64B32F"/>
<stop offset="0.9144" stop-color="#3AAA35"/>
</radialGradient>
<radialGradient id="paint23_radial_813_6989" cx="0" cy="0" r="1" gradientUnits="userSpaceOnUse" gradientTransform="translate(240.601 21.3652) scale(5.50979)">
<stop offset="0.0053" stop-color="#FFFCDF"/>
<stop offset="0.3616" stop-color="#BCD362"/>
<stop offset="0.5401" stop-color="#95C11F"/>
<stop offset="0.7536" stop-color="#64B32F"/>
<stop offset="0.9144" stop-color="#3AAA35"/>
</radialGradient>
<radialGradient id="paint24_radial_813_6989" cx="0" cy="0" r="1" gradientUnits="userSpaceOnUse" gradientTransform="translate(79.303 44.1561) scale(12.0629 12.0629)">
<stop offset="0.0053" stop-color="#FFFCDF"/>
<stop offset="0.3616" stop-color="#BCD362"/>
<stop offset="0.5401" stop-color="#95C11F"/>
<stop offset="0.7536" stop-color="#64B32F"/>
<stop offset="0.9144" stop-color="#3AAA35"/>
</radialGradient>
<radialGradient id="paint25_radial_813_6989" cx="0" cy="0" r="1" gradientUnits="userSpaceOnUse" gradientTransform="translate(240.602 151.278) scale(14.4698 14.4698)">
<stop offset="0.0053" stop-color="#FFFCDF"/>
<stop offset="0.3616" stop-color="#BCD362"/>
<stop offset="0.5401" stop-color="#95C11F"/>
<stop offset="0.7536" stop-color="#64B32F"/>
<stop offset="0.9144" stop-color="#3AAA35"/>
</radialGradient>
<radialGradient id="paint26_radial_813_6989" cx="0" cy="0" r="1" gradientUnits="userSpaceOnUse" gradientTransform="translate(213.598 275.772) scale(30.4907 30.4907)">
<stop offset="0.0053" stop-color="#F6B09C"/>
<stop offset="0.2958" stop-color="#EF7B51"/>
<stop offset="0.5401" stop-color="#E94E1B"/>
<stop offset="0.5498" stop-color="#E94D1C"/>
<stop offset="0.9144" stop-color="#E6332A"/>
</radialGradient>
<radialGradient id="paint27_radial_813_6989" cx="0" cy="0" r="1" gradientUnits="userSpaceOnUse" gradientTransform="translate(160.161 52.1264) scale(26.4437 26.4437)">
<stop offset="0.0053" stop-color="#F6B09C"/>
<stop offset="0.2958" stop-color="#EF7B51"/>
<stop offset="0.5401" stop-color="#E94E1B"/>
<stop offset="0.5498" stop-color="#E94D1C"/>
<stop offset="0.9144" stop-color="#E6332A"/>
</radialGradient>
<radialGradient id="paint28_radial_813_6989" cx="0" cy="0" r="1" gradientUnits="userSpaceOnUse" gradientTransform="translate(43.9096 133.856) scale(30.2832 30.2832)">
<stop offset="0.0053" stop-color="#F6B09C"/>
<stop offset="0.2958" stop-color="#EF7B51"/>
<stop offset="0.5401" stop-color="#E94E1B"/>
<stop offset="0.5498" stop-color="#E94D1C"/>
<stop offset="0.9144" stop-color="#E6332A"/>
</radialGradient>
<radialGradient id="paint29_radial_813_6989" cx="0" cy="0" r="1" gradientUnits="userSpaceOnUse" gradientTransform="translate(181.458 148.231) scale(3.38908)">
<stop offset="0.0053" stop-color="#F6B09C"/>
<stop offset="0.2958" stop-color="#EF7B51"/>
<stop offset="0.5401" stop-color="#E94E1B"/>
<stop offset="0.5498" stop-color="#E94D1C"/>
<stop offset="0.9144" stop-color="#E6332A"/>
</radialGradient>
<radialGradient id="paint30_radial_813_6989" cx="0" cy="0" r="1" gradientUnits="userSpaceOnUse" gradientTransform="translate(146.683 77.8891) scale(3.35231 3.35232)">
<stop offset="0.0053" stop-color="#F6B09C"/>
<stop offset="0.2958" stop-color="#EF7B51"/>
<stop offset="0.5401" stop-color="#E94E1B"/>
<stop offset="0.5498" stop-color="#E94D1C"/>
<stop offset="0.9144" stop-color="#E6332A"/>
</radialGradient>
<radialGradient id="paint31_radial_813_6989" cx="0" cy="0" r="1" gradientUnits="userSpaceOnUse" gradientTransform="translate(132.61 181.714) scale(7.9674 7.96739)">
<stop offset="0.0053" stop-color="#F6B09C"/>
<stop offset="0.2958" stop-color="#EF7B51"/>
<stop offset="0.5401" stop-color="#E94E1B"/>
<stop offset="0.5498" stop-color="#E94D1C"/>
<stop offset="0.9144" stop-color="#E6332A"/>
</radialGradient>
<radialGradient id="paint32_radial_813_6989" cx="0" cy="0" r="1" gradientUnits="userSpaceOnUse" gradientTransform="translate(22.7438 77.8892) scale(4.23315)">
<stop offset="0.0053" stop-color="#F6B09C"/>
<stop offset="0.2958" stop-color="#EF7B51"/>
<stop offset="0.5401" stop-color="#E94E1B"/>
<stop offset="0.5498" stop-color="#E94D1C"/>
<stop offset="0.9144" stop-color="#E6332A"/>
</radialGradient>
<radialGradient id="paint33_radial_813_6989" cx="0" cy="0" r="1" gradientUnits="userSpaceOnUse" gradientTransform="translate(42.9237 55.519) scale(3.19268 3.19268)">
<stop offset="0.0053" stop-color="#F6B09C"/>
<stop offset="0.2958" stop-color="#EF7B51"/>
<stop offset="0.5401" stop-color="#E94E1B"/>
<stop offset="0.5498" stop-color="#E94D1C"/>
<stop offset="0.9144" stop-color="#E6332A"/>
</radialGradient>
<radialGradient id="paint34_radial_813_6989" cx="0" cy="0" r="1" gradientUnits="userSpaceOnUse" gradientTransform="translate(273.178 27.2772) scale(3.19268)">
<stop offset="0.0053" stop-color="#F6B09C"/>
<stop offset="0.2958" stop-color="#EF7B51"/>
<stop offset="0.5401" stop-color="#E94E1B"/>
<stop offset="0.5498" stop-color="#E94D1C"/>
<stop offset="0.9144" stop-color="#E6332A"/>
</radialGradient>
<radialGradient id="paint35_radial_813_6989" cx="0" cy="0" r="1" gradientUnits="userSpaceOnUse" gradientTransform="translate(209.996 152.494) scale(4.42542)">
<stop offset="0.0053" stop-color="#F6B09C"/>
<stop offset="0.2958" stop-color="#EF7B51"/>
<stop offset="0.5401" stop-color="#E94E1B"/>
<stop offset="0.5498" stop-color="#E94D1C"/>
<stop offset="0.9144" stop-color="#E6332A"/>
</radialGradient>
<radialGradient id="paint36_radial_813_6989" cx="0" cy="0" r="1" gradientUnits="userSpaceOnUse" gradientTransform="translate(9.36598 134.153) scale(4.42936)">
<stop offset="0.0053" stop-color="#F6B09C"/>
<stop offset="0.2958" stop-color="#EF7B51"/>
<stop offset="0.5401" stop-color="#E94E1B"/>
<stop offset="0.5498" stop-color="#E94D1C"/>
<stop offset="0.9144" stop-color="#E6332A"/>
</radialGradient>
<linearGradient id="paint37_linear_813_6989" x1="365.8" y1="162.899" x2="376.026" y2="162.899" gradientUnits="userSpaceOnUse">
<stop offset="0.0107" stop-color="#D4EDFC"/>
<stop offset="0.3592" stop-color="#00B7ED"/>
<stop offset="0.5401" stop-color="#009FE3"/>
<stop offset="0.6194" stop-color="#0090CF"/>
<stop offset="0.8233" stop-color="#006C9F"/>
<stop offset="0.9198" stop-color="#005E8C"/>
</linearGradient>
<linearGradient id="paint38_linear_813_6989" x1="351.117" y1="240.938" x2="356.75" y2="240.938" gradientUnits="userSpaceOnUse">
<stop offset="0.0107" stop-color="#D4EDFC"/>
<stop offset="0.3592" stop-color="#00B7ED"/>
<stop offset="0.5401" stop-color="#009FE3"/>
<stop offset="0.6194" stop-color="#0090CF"/>
<stop offset="0.8233" stop-color="#006C9F"/>
<stop offset="0.9198" stop-color="#005E8C"/>
</linearGradient>
<linearGradient id="paint39_linear_813_6989" x1="257.7" y1="150.058" x2="263.354" y2="150.058" gradientUnits="userSpaceOnUse">
<stop offset="0.0107" stop-color="#D4EDFC"/>
<stop offset="0.3592" stop-color="#00B7ED"/>
<stop offset="0.5401" stop-color="#009FE3"/>
<stop offset="0.6194" stop-color="#0090CF"/>
<stop offset="0.8233" stop-color="#006C9F"/>
<stop offset="0.9198" stop-color="#005E8C"/>
</linearGradient>
<linearGradient id="paint40_linear_813_6989" x1="313.244" y1="57.5456" x2="322.844" y2="57.5456" gradientUnits="userSpaceOnUse">
<stop offset="0.0107" stop-color="#D4EDFC"/>
<stop offset="0.3592" stop-color="#00B7ED"/>
<stop offset="0.5401" stop-color="#009FE3"/>
<stop offset="0.6194" stop-color="#0090CF"/>
<stop offset="0.8233" stop-color="#006C9F"/>
<stop offset="0.9198" stop-color="#005E8C"/>
</linearGradient>
<linearGradient id="paint41_linear_813_6989" x1="250.694" y1="47.6948" x2="259.66" y2="47.6948" gradientUnits="userSpaceOnUse">
<stop offset="0.0053" stop-color="#D0C2E1"/>
<stop offset="0.2421" stop-color="#A77BB5"/>
<stop offset="0.4448" stop-color="#8B4393"/>
<stop offset="0.5401" stop-color="#803089"/>
<stop offset="0.5548" stop-color="#7C2E84"/>
<stop offset="0.625" stop-color="#68256E"/>
<stop offset="0.6932" stop-color="#561D5A"/>
<stop offset="0.7579" stop-color="#471549"/>
<stop offset="0.818" stop-color="#3C0D3C"/>
<stop offset="0.8719" stop-color="#340733"/>
<stop offset="0.9144" stop-color="#320530"/>
</linearGradient>
<linearGradient id="paint42_linear_813_6989" x1="269.863" y1="189.408" x2="276.492" y2="189.408" gradientUnits="userSpaceOnUse">
<stop offset="0.0053" stop-color="#D0C2E1"/>
<stop offset="0.2421" stop-color="#A77BB5"/>
<stop offset="0.4448" stop-color="#8B4393"/>
<stop offset="0.5401" stop-color="#803089"/>
<stop offset="0.5548" stop-color="#7C2E84"/>
<stop offset="0.625" stop-color="#68256E"/>
<stop offset="0.6932" stop-color="#561D5A"/>
<stop offset="0.7579" stop-color="#471549"/>
<stop offset="0.818" stop-color="#3C0D3C"/>
<stop offset="0.8719" stop-color="#340733"/>
<stop offset="0.9144" stop-color="#320530"/>
</linearGradient>
<linearGradient id="paint43_linear_813_6989" x1="270.178" y1="183.793" x2="270.182" y2="183.793" gradientUnits="userSpaceOnUse">
<stop offset="0.0053" stop-color="#D0C2E1"/>
<stop offset="0.2421" stop-color="#A77BB5"/>
<stop offset="0.4448" stop-color="#8B4393"/>
<stop offset="0.5401" stop-color="#803089"/>
<stop offset="0.5548" stop-color="#7C2E84"/>
<stop offset="0.625" stop-color="#68256E"/>
<stop offset="0.6932" stop-color="#561D5A"/>
<stop offset="0.7579" stop-color="#471549"/>
<stop offset="0.818" stop-color="#3C0D3C"/>
<stop offset="0.8719" stop-color="#340733"/>
<stop offset="0.9144" stop-color="#320530"/>
</linearGradient>
<linearGradient id="paint44_linear_813_6989" x1="328.063" y1="51.19" x2="331.182" y2="51.19" gradientUnits="userSpaceOnUse">
<stop offset="0.0053" stop-color="#D0C2E1"/>
<stop offset="0.2421" stop-color="#A77BB5"/>
<stop offset="0.4448" stop-color="#8B4393"/>
<stop offset="0.5401" stop-color="#803089"/>
<stop offset="0.5548" stop-color="#7C2E84"/>
<stop offset="0.625" stop-color="#68256E"/>
<stop offset="0.6932" stop-color="#561D5A"/>
<stop offset="0.7579" stop-color="#471549"/>
<stop offset="0.818" stop-color="#3C0D3C"/>
<stop offset="0.8719" stop-color="#340733"/>
<stop offset="0.9144" stop-color="#320530"/>
</linearGradient>
<radialGradient id="paint45_radial_813_6989" cx="0" cy="0" r="1" gradientUnits="userSpaceOnUse" gradientTransform="translate(353.933 84.7978) scale(45.5296 45.5296)">
<stop offset="0.0053" stop-color="#FFFCDF"/>
<stop offset="0.3616" stop-color="#BCD362"/>
<stop offset="0.5401" stop-color="#95C11F"/>
<stop offset="0.7536" stop-color="#64B32F"/>
<stop offset="0.9144" stop-color="#3AAA35"/>
</radialGradient>
<radialGradient id="paint46_radial_813_6989" cx="0" cy="0" r="1" gradientUnits="userSpaceOnUse" gradientTransform="translate(312.284 161.088) scale(2.3382 2.33821)">
<stop offset="0.0053" stop-color="#FFFCDF"/>
<stop offset="0.3616" stop-color="#BCD362"/>
<stop offset="0.5401" stop-color="#95C11F"/>
<stop offset="0.7536" stop-color="#64B32F"/>
<stop offset="0.9144" stop-color="#3AAA35"/>
</radialGradient>
<radialGradient id="paint47_radial_813_6989" cx="0" cy="0" r="1" gradientUnits="userSpaceOnUse" gradientTransform="translate(301.458 36.8715) scale(12.0629 12.0629)">
<stop offset="0.0053" stop-color="#FFFCDF"/>
<stop offset="0.3616" stop-color="#BCD362"/>
<stop offset="0.5401" stop-color="#95C11F"/>
<stop offset="0.7536" stop-color="#64B32F"/>
<stop offset="0.9144" stop-color="#3AAA35"/>
</radialGradient>
<radialGradient id="paint48_radial_813_6989" cx="0" cy="0" r="1" gradientUnits="userSpaceOnUse" gradientTransform="translate(277.66 271.181) scale(30.2832 30.2832)">
<stop offset="0.0053" stop-color="#F6B09C"/>
<stop offset="0.2958" stop-color="#EF7B51"/>
<stop offset="0.5401" stop-color="#E94E1B"/>
<stop offset="0.5498" stop-color="#E94D1C"/>
<stop offset="0.9144" stop-color="#E6332A"/>
</radialGradient>
<radialGradient id="paint49_radial_813_6989" cx="0" cy="0" r="1" gradientUnits="userSpaceOnUse" gradientTransform="translate(287.925 57.5459) scale(4.23314)">
<stop offset="0.0053" stop-color="#F6B09C"/>
<stop offset="0.2958" stop-color="#EF7B51"/>
<stop offset="0.5401" stop-color="#E94E1B"/>
<stop offset="0.5498" stop-color="#E94D1C"/>
<stop offset="0.9144" stop-color="#E6332A"/>
</radialGradient>
<radialGradient id="paint50_radial_813_6989" cx="0" cy="0" r="1" gradientUnits="userSpaceOnUse" gradientTransform="translate(373.94 92.6915) scale(3.19269 3.19268)">
<stop offset="0.0053" stop-color="#F6B09C"/>
<stop offset="0.2958" stop-color="#EF7B51"/>
<stop offset="0.5401" stop-color="#E94E1B"/>
<stop offset="0.5498" stop-color="#E94D1C"/>
<stop offset="0.9144" stop-color="#E6332A"/>
</radialGradient>
<radialGradient id="paint51_radial_813_6989" cx="0" cy="0" r="1" gradientUnits="userSpaceOnUse" gradientTransform="translate(381.872 246.459) scale(4.42935 4.42936)">
<stop offset="0.0053" stop-color="#F6B09C"/>
<stop offset="0.2958" stop-color="#EF7B51"/>
<stop offset="0.5401" stop-color="#E94E1B"/>
<stop offset="0.5498" stop-color="#E94D1C"/>
<stop offset="0.9144" stop-color="#E6332A"/>
</radialGradient>
<radialGradient id="paint52_radial_813_6989" cx="0" cy="0" r="1" gradientUnits="userSpaceOnUse" gradientTransform="translate(125.206 152.495) scale(11.4638 11.4638)">
<stop offset="0.0053" stop-color="#F6B09C"/>
<stop offset="0.2958" stop-color="#EF7B51"/>
<stop offset="0.5401" stop-color="#E94E1B"/>
<stop offset="0.5498" stop-color="#E94D1C"/>
<stop offset="0.9144" stop-color="#E6332A"/>
</radialGradient>
<clipPath id="clip0_813_6989">
<rect width="393" height="396.75" fill="white" transform="translate(0 0.198486)"/>
</clipPath>
</defs>
</svg>
